<svg width="256" height="256" viewBox="0 0 1024 1024" xmlns="http://www.w3.org/2000/svg" version="1.1">
  <defs>
    <linearGradient id="tailwind-gradient" x1="0%" y1="0%" x2="100%" y2="100%">
      <stop offset="0%" style="stop-color: var(--grad-from, #06b6d4); stop-opacity:1" />
      <stop offset="100%" style="stop-color: var(--grad-to, #2563eb); stop-opacity:1" />
    </linearGradient>
  </defs>

  <rect x="0" y="0" width="1024" height="1024" fill="url(#tailwind-gradient)" rx="192" ry="192"/>
  
  <g id="dragonfly-icon-white">
    <path d="M192 277.333333h298.666667v42.666667H149.333333s-47.594667 8-84.757333 23.872c0.042667 0.298667 0.256 0.490667 0.298667 0.789333h-0.128C64.512 343.552 64 342.528 64 341.333333c0-42.666667 128-64 128-64z" fill="#FFFFFF" p-id="9393"></path>
    <path d="M213.333333 478.506667l277.333334-170.666667v42.666667s-19.221333 12.885333-40.128 35.008L195.413333 542.506667s-27.690667 27.733333-47.573333 59.456C133.888 558.122667 213.333333 478.506667 213.333333 478.506667zM832 277.333333H533.333333v42.666667h341.333334s47.594667 8 84.757333 23.872c-0.042667 0.298667-0.256 0.490667-0.298667 0.789333h0.128c0.234667-1.109333 0.746667-2.133333 0.746667-3.328 0-42.666667-128-64-128-64z" fill="#FFFFFF" p-id="9394"></path>
    <path d="M810.666667 478.506667l-277.333334-170.666667v42.666667s19.221333 12.885333 40.128 35.008L828.586667 542.506667s27.690667 27.733333 47.573333 59.456C890.112 558.122667 810.666667 478.506667 810.666667 478.506667z" fill="#FFFFFF" p-id="9395"></path>
    <path d="M64.576 343.872C101.738667 328 149.333333 320 149.333333 320h320v8.789333c-0.298667 0.128-134.229333 55.210667-192 55.210667-62.656 0-206.677333-0.106667-212.757333-40.128zM450.538667 385.493333c-25.642667 24.725333-42.965333 64.896-45.205334 71.658667-21.333333 64-229.013333 203.306667-256 149.333333-0.704-1.408-1.024-3.008-1.493333-4.544 19.904-31.722667 47.573333-59.456 47.573333-59.456l255.125334-156.992zM959.424 343.872C922.261333 328 874.666667 320 874.666667 320H554.666667v8.789333c0.298667 0.128 134.208 55.210667 192 55.210667 62.656 0 206.677333-0.106667 212.757333-40.128zM573.461333 385.493333c25.642667 24.725333 42.965333 64.896 45.205334 71.658667 21.333333 64 229.013333 203.306667 256 149.333333 0.704-1.408 1.024-3.008 1.493333-4.544-19.904-31.722667-47.573333-59.456-47.573333-59.456L573.461333 385.493333z" fill="#FFFFFF" p-id="9396"></path>
    <path d="M533.333333 874.666667c0 23.552-21.333333 21.333333-21.333333 21.333333s-21.333333 2.218667-21.333333-21.333333l-21.333334-405.333334a42.666667 42.666667 0 0 1 85.333334 0l-21.333334 405.333334z" fill="#FFFFFF" p-id="9397"></path>
    <path d="M554.666667 170.666667c0 23.552-19.114667 85.333333-42.666667 85.333333s-42.666667-61.781333-42.666667-85.333333 19.114667-42.666667 42.666667-42.666667 42.666667 19.114667 42.666667 42.666667z" fill="#FFFFFF" p-id="9398"></path>
    <path d="M512 160.256A52.821333 52.821333 0 0 0 480 149.333333a53.333333 53.333333 0 1 0 0 106.666667H512c-24.661333-35.328-12.885333-86.016 0-95.744zM544 149.333333c-12.053333 0-23.061333 4.16-32 10.922667 12.885333 9.728 24.661333 63.424 0 95.744h32a53.333333 53.333333 0 1 0 0-106.666667z" fill="#FFFFFF" p-id="9399"></path>
    <path d="M512 426.666667a42.666667 42.666667 0 0 0-42.666667 42.666666l2.24 42.666667h80.832L554.666667 469.333333a42.666667 42.666667 0 0 0-42.666667-42.666666z" fill="#FFFFFF" p-id="9400"></path>
    <path d="M477.184 618.666667h69.632l4.48-85.333334h-78.592z" fill="#FFFFFF" p-id="9401"></path>
    <path d="M576 320c0 42.666667-21.333333 106.666667-64 106.666667s-64-64-64-106.666667c0-35.328 0-64 64-64s64 28.672 64 64zM512 426.666667a42.666667 42.666667 0 0 0-42.666667 42.666666l3.370667 64h78.592L554.666667 469.333333a42.666667 42.666667 0 0 0-42.666667-42.666666z" fill="#FFFFFF" p-id="9402"></path>
    <path d="M481.685333 704h60.629334l4.501333-85.333333h-69.632z" fill="#FFFFFF" p-id="9403"></path>
    <path d="M486.165333 789.333333h51.669334l4.48-85.333333h-60.629334z" fill="#FFFFFF" p-id="9404"></path>
  </g>
</svg>