<?xml version="1.0" standalone="no"?><!DOCTYPE svg PUBLIC "-//W3C//DTD SVG 1.1//EN" "http://www.w3.org/Graphics/SVG/1.1/DTD/svg11.dtd"><svg t="1783935985067" class="icon" viewBox="0 0 1024 1024" version="1.1" xmlns="http://www.w3.org/2000/svg" p-id="58695" xmlns:xlink="http://www.w3.org/1999/xlink" width="256" height="256"><path d="M51.2 422.86l62.26 35.994v211.2L512 900.71l398.54-230.656V461.158l62.26-36.096V706.1L512 972.8 51.2 706.048V422.912z m116.429 58.88l326.86 192.513v144.384L167.63 626.074V481.69z m692.633-1.126v144.384l-326.86 191.488V672.102l326.86-191.488zM167.63 300.902l326.86 192.512v144.384L167.63 445.184V300.8v0.102z m692.633 0v144.333l-326.86 191.488V492.34l326.86-191.488zM237.67 567.552a27.29 27.29 0 1 0 0.052 54.528 27.29 27.29 0 0 0-0.052-54.528zM513.946 51.2l346.316 202.854L513.946 456.91 167.629 254.054 513.946 51.2zM235.725 386.714a25.344 25.344 0 1 0 0.102 50.688 25.344 25.344 0 0 0-0.102-50.688z" fill="#FF6A00" p-id="58696"></path></svg>