<?xml version="1.0" standalone="no"?><!DOCTYPE svg PUBLIC "-//W3C//DTD SVG 1.1//EN" "http://www.w3.org/Graphics/SVG/1.1/DTD/svg11.dtd"><svg t="1783935413667" class="icon" viewBox="0 0 1182 1024" version="1.1" xmlns="http://www.w3.org/2000/svg" p-id="34230" xmlns:xlink="http://www.w3.org/1999/xlink" width="295.5" height="256"><path d="M786.407187 63.635197H311.067472L73.472803 475.263598l237.592813 411.628402H786.405331L1024 475.263598 786.407187 63.635197zM346.678825 548.41335l72.110112-72.186229v100.139525c-25.302217-0.542098-49.536948-12.145213-72.110112-27.953296z m283.310943 19.630614c-44.084412-45.450795-100.85799-102.371036-162.506733-163.702319l-165.113258 163.32545c-26.026252 18.32364-69.470171 5.526796-103.629742-19.324292l269.413196-266.370395c85.239269 89.661448 173.712558 178.58401 265.546109 266.741694-44.29234 31.74798-84.247899 33.994343-103.709572 19.329862z m157.458915 0l-132.401755-131.956196-13.208987 13.20713-61.819541-61.141919 75.058232-75.076797c80.028078 80.629583 158.660069 159.985609 236.079766 235.63792-38.186316 27.379639-80.538615 36.77909-103.707715 19.329862z" fill="#0F7EA8" p-id="34231"></path></svg>
