<?xml version="1.0" standalone="no"?><!DOCTYPE svg PUBLIC "-//W3C//DTD SVG 1.1//EN" "http://www.w3.org/Graphics/SVG/1.1/DTD/svg11.dtd"><svg t="1783935124063" class="icon" viewBox="0 0 1754 1024" version="1.1" xmlns="http://www.w3.org/2000/svg" p-id="21162" xmlns:xlink="http://www.w3.org/1999/xlink" width="438.5" height="256"><path d="M1753.985003 1023.998287H0c18.855928-167.231595 76.518274-317.964253 163.778329-447.155109l-2.249076 3.506366c69.118419-105.732287 158.735465-192.33629 263.809986-255.911668l33.599112-18.855928-147.608274-249.231243a37.266494 37.266494 0 0 1 12.278279-51.084697l0.171293-0.109628a36.584748 36.584748 0 0 1 50.317304 12.990858l0.109627 0.171293 151.988236 255.796902c101.347187-41.656733 218.974057-65.829594 342.243315-65.829594 4.056217 0 8.050769 0 12.113838 0.054814h-0.602951c3.234011-0.054814 7.070973-0.054814 10.853121-0.054814a888.643848 888.643848 0 0 1 342.191928 68.022144l-5.919885-2.19255 151.284222-255.80718A36.612155 36.612155 0 0 1 1409.929407 0.164904a36.243875 36.243875 0 0 1 19.732948 5.810257l-0.171293-0.109628a37.285337 37.285337 0 0 1 11.620514 51.303952l0.109628-0.171293-147.603136 249.948961 36.559054 20.445526c108.085852 68.022144 196.986893 156.707356 263.261849 261.178927l2.028109 3.398452c80.243896 123.159632 136.371457 269.291361 157.968072 426.382413l0.602951 5.536189z m-548.120314-327.392217a73.078712 73.078712 0 0 0 73.065008 73.065008 73.078712 73.078712 0 0 0 73.065009-73.065008 73.078712 73.078712 0 0 0-73.065009-73.065008 73.078712 73.078712 0 0 0-73.065008 73.065008z m-803.927493 0A73.078712 73.078712 0 0 0 474.995353 769.671078a73.078712 73.078712 0 0 0 73.065008-73.065008 73.078712 73.078712 0 0 0-73.065008-73.063295 73.078712 73.078712 0 0 0-73.065009 73.065008z" fill="#3DDC84" p-id="21163"></path></svg>