<?xml version="1.0" standalone="no"?><!DOCTYPE svg PUBLIC "-//W3C//DTD SVG 1.1//EN" "http://www.w3.org/Graphics/SVG/1.1/DTD/svg11.dtd"><svg t="1783935952155" class="icon" viewBox="0 0 1024 1024" version="1.1" xmlns="http://www.w3.org/2000/svg" p-id="56575" xmlns:xlink="http://www.w3.org/1999/xlink" width="256" height="256"><path d="M513.2288 51.2c-122.368 0-239.7696 48.9472-326.2976 136.2944a467.8144 467.8144 0 0 0-135.168 329.2672c0 4.352 0.512 8.6528 0.5632 12.9024l-1.024 319.744c-0.8192 20.7872 3.9424 41.472 13.7728 59.904 9.728 18.3808 21.504 32.256 41.984 44.8512 20.2752 12.544 37.7856 16.9472 58.5216 17.3568a115.712 115.712 0 0 0 59.2384-14.848 118.1696 118.1696 0 0 0 60.0064-102.2976v-35.4816l1.4336-168.192V519.168a98.5088 98.5088 0 0 0-24.5248-66.4064 73.8816 73.8816 0 0 1 5.3248-102.144 72.192 72.192 0 0 1 101.376 2.56 73.8816 73.8816 0 0 1 0.3072 102.2464 93.9008 93.9008 0 0 0-24.5248 64.7168v27.7504s12.2368 103.0656 85.0944 10.3424l46.08-75.8784c12.6464-20.8384 17.2544-45.7728 12.8-69.7856a73.216 73.216 0 0 1 56.32-85.3504 72.704 72.704 0 0 1 85.8624 54.9376 73.3696 73.3696 0 0 1-52.3264 87.9104c-22.7328 6.656-41.984 21.76-54.016 42.1376l-48.7936 80.0768s-24.9344 47.5136 32.512 47.5136l66.048-2.0992c23.7056-0.3072 46.3872-9.728 63.4368-26.2656a72.0384 72.0384 0 0 1 101.376-2.1504c28.7744 27.136 30.7712 72.4992 4.608 102.1952a71.9872 71.9872 0 0 1-101.2224 7.168 96.9216 96.9216 0 0 0-66.3552-23.8592s-66.6624-1.024-111.0528 49.9712a139.3664 139.3664 0 0 0-22.1696 149.248c1.1776 2.56 2.56 5.0688 3.7888 7.936l1.536 2.304c0.9728 1.7408 2.048 3.3792 3.072 5.0176l1.8432 2.816c1.024 1.536 2.048 2.8672 3.2256 4.3008l2.304 2.9184c1.1264 1.4336 2.2528 2.7648 3.4304 3.9936l2.7136 2.9696 3.6864 3.7376 3.072 2.7648 4.096 3.584 3.4304 2.56 4.5568 3.3792a48.896 48.896 0 0 0 3.584 2.4064 48.9984 48.9984 0 0 0 5.12 3.072l3.8912 2.3552c1.8432 1.024 3.7376 1.9968 5.5808 2.8672l4.1984 2.048 6.5536 2.6624 4.1472 1.7408 7.936 2.7136 3.4304 1.1264c4.0448 1.28 7.8848 2.304 12.4416 3.328l2.4576 0.512c3.6352 0.768 7.3216 1.536 10.9568 2.1504l5.12 0.768c3.0208 0.4608 6.0416 0.9216 9.2672 1.2288l6.144 0.6144 8.3456 0.6144c8.8576 0.5632 17.8176 0.3072 26.624-0.5632C839.168 921.6 994.816 704.512 970.24 468.224 945.7152 231.8848 748.7488 52.224 513.28 51.2h-0.0512z" fill="#59AB2D" p-id="56576"></path></svg>