<?xml version="1.0" standalone="no"?><!DOCTYPE svg PUBLIC "-//W3C//DTD SVG 1.1//EN" "http://www.w3.org/Graphics/SVG/1.1/DTD/svg11.dtd"><svg t="1783935090239" class="icon" viewBox="0 0 1024 1024" version="1.1" xmlns="http://www.w3.org/2000/svg" p-id="16515" xmlns:xlink="http://www.w3.org/1999/xlink" width="256" height="256"><path d="M901.957 349.127c-60.072-87.975-153.764-100.092-187.17-101.5-79.699-8.106-155.6 46.931-196.003 46.931-40.404 0-102.78-45.822-168.868-44.627-86.908 1.28-166.99 50.515-211.788 128.421-90.322 156.666-23.125 388.763 64.85 515.819 43.05 62.248 94.332 132.133 161.615 129.616 64.85-2.56 89.425-41.983 167.673-41.983 78.418 0 100.433 41.983 169.038 40.703 69.8-1.28 114-63.4 156.666-125.819 49.406-72.189 69.714-141.989 70.909-145.573-1.579-0.725-135.973-52.221-137.381-207.095-1.28-129.573 105.68-191.779 110.502-194.893zM715.853 0.043c-51.497 2.133-113.83 34.302-150.82 77.48-33.108 38.398-58.707 99.622-50.9 158.414 57.513 4.48 112.72-29.183 148.474-72.53C698.317 120.23 722.423 60.029 715.853 0.043z" fill="#6B7280" opacity=".9" p-id="16516"></path></svg>
