<?xml version="1.0" standalone="no"?><!DOCTYPE svg PUBLIC "-//W3C//DTD SVG 1.1//EN" "http://www.w3.org/Graphics/SVG/1.1/DTD/svg11.dtd"><svg t="1783935174551" class="icon" viewBox="0 0 1024 1024" version="1.1" xmlns="http://www.w3.org/2000/svg" p-id="24135" xmlns:xlink="http://www.w3.org/1999/xlink" width="256" height="256"><path d="M485.984 25.824c-43.296 106.08-69.376 175.52-117.536 278.464 29.568 31.36 65.824 67.808 124.704 108.96-63.328-26.048-106.496-52.192-138.784-79.328C292.704 462.592 196.064 645.888 0 998.176c154.112-88.96 273.568-143.776 384.896-164.768a283.936 283.936 0 0 1-7.328-66.016l0.16-4.928c2.464-98.752 53.824-174.688 114.624-169.504 60.832 5.12 108.096 89.408 105.728 188.128a276.288 276.288 0 0 1-6.24 53.024c110.112 21.536 228.352 76.256 380.352 164-29.952-55.168-56.736-104.896-82.272-152.288-40.256-31.2-82.208-71.808-167.808-115.744 58.848 15.296 100.992 32.928 133.824 52.64C596.096 299.104 575.136 234.816 486.016 25.792zM976.96 911.36v-26.592h-9.952v-3.584h23.968v3.584h-10.016v26.592h-4z m18.144 0v-30.176h6.048l7.136 21.376 1.44 4.512c0.352-1.088 0.864-2.72 1.632-4.864l7.2-21.056h5.408v30.176h-3.872v-25.312l-8.8 25.312h-3.584l-8.736-25.696v25.696h-3.872z" fill="#1793D1" p-id="24136"></path></svg>