<?xml version="1.0" standalone="no"?><!DOCTYPE svg PUBLIC "-//W3C//DTD SVG 1.1//EN" "http://www.w3.org/Graphics/SVG/1.1/DTD/svg11.dtd"><svg t="1783934959838" class="icon" viewBox="0 0 1024 1024" version="1.1" xmlns="http://www.w3.org/2000/svg" p-id="10651" xmlns:xlink="http://www.w3.org/1999/xlink" width="256" height="256"><path d="M153.650377 358.349623v112.005247h-3.694326v-108.310921l3.694326-3.694326z" fill="#932279" p-id="10652"></path><path d="M453.058708 512l-29.554608 29.554608H137.86553v108.310922L0 512l137.86553-137.86553v108.310922h285.63857l29.554608 29.554608zM738.529354 226.529354L553.64513 411.413578V149.956051h108.310921l3.694326 3.694326 72.878977 72.878977z" fill="#932279" p-id="10653"></path><path d="M649.86553 137.86553h-108.310922v285.63857l-29.554608 29.554608-29.554608-29.554608V137.86553h-108.310922L512 0l137.86553 137.86553zM874.043949 553.64513v108.310921l-3.694326 3.694326-72.878977 72.878977-184.884224-184.884224h261.457527z" fill="#EFA724" p-id="10654"></path><path d="M886.13447 361.036405v13.098065l-6.04526-6.04526-6.045261-6.045261v108.310921h-3.694326v-125.103312l3.694326 3.694326 6.045261 6.045261 6.04526 6.04526z" fill="#6D6CCF" p-id="10655"></path><path d="M886.13447 649.86553v-108.310922H600.4959L570.941292 512l29.554608-29.554608h285.63857v-108.310922l137.86553 137.86553-137.86553 137.86553z" fill="#6D6CCF" p-id="10656"></path><path d="M411.413578 470.35487H149.956051v-108.310921l3.694326-3.694326L226.529354 285.470646 411.413578 470.35487zM470.35487 149.956051V411.413578L285.470646 226.529354l72.878977-72.878977 3.694326-3.694326h108.310921z" fill="#9CCD2A" p-id="10657"></path><path d="M738.529354 797.470646L553.64513 612.586422v261.457527h108.310921l3.694326-3.694326 72.878977-72.878977z" fill="#EFA724" p-id="10658"></path><path d="M649.86553 886.13447h-108.310922V600.4959L512 570.941292l-29.554608 29.554608v285.63857h-108.310922l137.86553 137.86553 137.86553-137.86553z" fill="#9CCD2A" p-id="10659"></path><path d="M470.35487 874.043949V612.586422L285.470646 797.470646l72.878977 72.878977 3.694326 3.694326h108.310921z" fill="#6D6CCF" p-id="10660"></path><path d="M470.35487 428.541817v41.813053h-41.813053L226.529354 268.342407l-76.573303 76.573303V149.956051h194.959659l-76.573303 76.573303 202.012463 202.012463z" fill="#9CCD2A" p-id="10661"></path><path d="M880.08921 143.91079v224.17842l-6.045261-6.045261v108.310921H612.586422L797.470646 285.470646l72.878977 72.878977v-13.098065l3.694326 3.694326v-4.030174l-76.573303-76.573303-202.012463 202.012463h-41.813053v-41.813053L755.657593 226.529354l-82.618564-82.618564h207.050181z" fill="#932279" p-id="10662"></path><path d="M666.993768 137.86553l12.090522 12.090521h194.959659v212.087898l6.045261 6.045261 6.04526 6.04526V137.86553z" fill="#FFFFFF" p-id="10663"></path><path d="M874.043949 679.08429v194.959659H679.08429L755.657593 797.470646 553.64513 595.458183v-41.813053h41.813053L797.470646 755.657593l76.573303-76.573303z" fill="#EFA724" p-id="10664"></path><path d="M411.413578 553.64513L226.529354 738.529354l-72.878977-72.878977-3.694326-3.694326v-108.310921H411.413578z" fill="#6D6CCF" p-id="10665"></path><path d="M470.35487 595.458183L268.342407 797.470646l76.573303 76.573303H149.956051V679.08429L226.529354 755.657593l202.012463-202.012463h41.813053v41.813053z" fill="#6D6CCF" p-id="10666"></path><path d="M874.043949 344.91571v4.030174l-3.694326-3.694326v13.098065l3.694326 3.694326 6.045261 6.045261 6.04526 6.04526v-16.792391z" fill="#FFFFFF" p-id="10667"></path></svg>