<?xml version="1.0" standalone="no"?><!DOCTYPE svg PUBLIC "-//W3C//DTD SVG 1.1//EN" "http://www.w3.org/Graphics/SVG/1.1/DTD/svg11.dtd"><svg t="1783937259619" class="icon" viewBox="0 0 1024 1024" version="1.1" xmlns="http://www.w3.org/2000/svg" p-id="68493" xmlns:xlink="http://www.w3.org/1999/xlink" width="256" height="256"><path d="M871.6016935 130.57230523H152.3983065A87.28612962 87.28612962 0 0 0 65.11217689 217.85843484v588.28313032a87.28612962 87.28612962 0 0 0 87.28612961 87.28612961h719.203387A87.28612962 87.28612962 0 0 0 958.88782311 806.14156516v-588.28313032a87.28612962 87.28612962 0 0 0-87.28612961-87.28612961z m-17.87551292 696.96624891H170.27381942a39.32612843 39.32612843 0 0 1-39.32612843-39.32612842V354.89211692h762.05099145v433.37393531a39.32612843 39.32612843 0 0 1-39.27250186 39.27250191zM650.35647004 244.90408589a35.268387 35.268387 0 1 1-35.268387-35.26838701 35.268387 35.268387 0 0 1 35.268387 35.26838701z m217.45561472 0a35.268387 35.268387 0 1 1-35.26838701-35.26838701 35.268387 35.268387 0 0 1 35.26838701 35.26838701z m-108.73674513 0a35.268387 35.268387 0 1 1-35.26838699-35.26838701 35.268387 35.268387 0 0 1 35.28626252 35.26838701z m-548.49223855 503.19568881a32.74793968 32.74793968 0 0 0 41.25668382 0L397.59671728 623.16781487a22.71977693 22.71977693 0 0 0 0-35.51864417l-145.68543033-124.94983534a32.74793968 32.74793968 0 0 0-41.25668384 0c-11.36882623 9.74215455-11.36882623 25.61561002 0 35.37564005l125.12859048 107.25307759-125.12859048 107.25307755c-11.36882623 9.74215455-11.36882623 25.61561002 0 35.37564005z m58.00603942 9.54552389l462.06413359 7.23958274H476.4456048a29.79848003 29.79848003 0 1 1 0-59.59696007h254.22554479a29.79848003 29.79848003 0 0 1 0 59.59696007z" fill="#737373" p-id="68494"></path></svg>