<?xml version="1.0" standalone="no"?><!DOCTYPE svg PUBLIC "-//W3C//DTD SVG 1.1//EN" "http://www.w3.org/Graphics/SVG/1.1/DTD/svg11.dtd"><svg t="1783935791212" class="icon" viewBox="0 0 1024 1024" version="1.1" xmlns="http://www.w3.org/2000/svg" p-id="48929" xmlns:xlink="http://www.w3.org/1999/xlink" width="256" height="256"><path d="M687.179771 29.735301C613.521867 2.891336 538.201966-4.436654 465.028061 2.411337c-84.821889 6.847991-126.159835 32.987957-123.665838 28.315963-138.829818 49.499935-255.967665 155.979796-310.297594 305.3076-96.659874 265.983652 40.315947 560.091267 305.7876 656.911141 265.631652 96.819873 559.419268-40.315947 656.079142-306.2996S952.617423 126.559174 687.145771 29.737301zM354.386206 944.792104c-27.677964-10.173987-54.329929-23.16597-79.671895-38.49195 123.825838 9.503988 285.309627-19.005975 394.127484-120.975842 0 0 207.655728-165.803783 57.497925-438.123426 0 0 24.157968 109.811856-6.655992 199.975738 0 0-29.499961 122.833839-160.29979 158.315793-192.647748 52.665931-412.269461-82.325892-504.09934-147.659807-6.845991-67.159912-0.829999-136.495821 23.839968-204.295733 36.505952-100.307869 105.137862-178.633766 188.967753-231.139697-20.989973 146.477808-4.319994 281.469632 19.325975 337.973558 31.995958 75.831901 87.475886 164.299785 195.815744 175.65977 108.499858 11.325985 168.13978-90.005882 168.13978-90.005883 55.671927-84.499889 64.311916-205.799731 63.479917-208.805726-0.831999-2.847996-14.845981-10.847986-14.845981-10.847986-37.339951 151.309802-98.99587 201.959736-98.99587 201.959736-97.333873 93.813877-166.315782 28.667962-166.315783 28.667962-74.007903-79.477896-22.173971-208.805727-22.173971-208.805727 28.987962-87.989885 113.489851-216.805716 209.319726-282.45963 15.995979 3.997995 31.993958 6.493992 47.831938 12.157984a456.833402 456.833402 0 0 1 151.469801 92.147879c-70.007908 25.659966-182.985761 79.669896-182.98576 79.669896-179.145766 75.479901-191.30375 189.639752-191.30375 189.639752-18.653976 117.649846 74.839902 67.831911 74.839902 67.831911 95.987874-46.839939 143.309812-192.647748 143.309813-192.647748-30.011961-5.821992-53.65793 3.327996-53.65793 3.327996-38.33195 94.835876-116.657847 133.647825-116.657847 133.647825-30.84396 16.317979-38.01195-12.509984-38.011951-12.509983-5.149993-21.661972 22.333971-25.339967 22.333971-25.339967 42.649944-16.511978 70.007908-61.33992 76.149901-79.671896 6.143992-18.333976 17.501977-19.837974 17.501977-19.837974a567.215258 567.215258 0 0 1 111.827853-22.84397c72.501905-8.831988 183.46376 25.819966 183.46376 25.819966 24.989967 10.013987 48.825936 17.499977 70.007909 23.485969 40.827947 101.649867 47.161938 217.475715 6.847991 328.47157-86.997886 239.299687-351.28554 362.803525-590.423228 275.64564z" fill="#31BFF7" p-id="48930"></path></svg>