<?xml version="1.0" standalone="no"?><!DOCTYPE svg PUBLIC "-//W3C//DTD SVG 1.1//EN" "http://www.w3.org/Graphics/SVG/1.1/DTD/svg11.dtd"><svg t="1783935338315" class="icon" viewBox="0 0 1024 1024" version="1.1" xmlns="http://www.w3.org/2000/svg" p-id="27546" xmlns:xlink="http://www.w3.org/1999/xlink" width="256" height="256"><path d="M421.6832 56.9344c-92.16 21.0944-168.6016 62.976-233.5744 128-48.128 48.0256-78.1312 93.184-103.168 155.2384C54.6816 415.232 51.3536 448.3584 51.2 676.7104c-0.1024 208.3328 0.2048 213.5552 14.1824 241.3056 10.4448 20.6336 22.016 32.256 42.8544 42.9056 28.5184 14.592 28.928 14.592 260.352 12.3392l231.7312-2.2528 50.7904-17.5104c80.5888-27.8016 127.6928-57.344 187.4432-117.6576C930.5088 743.168 972.8 640.8704 972.8 511.3856c0-129.4336-42.2912-231.7312-134.2464-324.4544-60.5184-61.0816-112.7936-93.6448-189.5424-118.1696-61.44-19.6096-168.8576-25.1904-227.328-11.776z m138.24 189.7472c47.4624-18.0224 121.5488 0.768 159.0784 40.3456 50.1248 52.736 49.3056 154.5216-1.2288 154.5216-21.0944 0-38.0928-22.528-38.0928-50.4832 0-35.1744-10.8544-55.1424-36.6592-67.328-30.72-14.6432-63.4368-8.448-85.5552 16.128-16.8448 18.6368-17.4592 21.9648-17.4592 89.088V498.688h40.8064c46.336 0 60.7744 9.0624 60.7744 38.0928 0 28.928-14.4896 38.0928-59.9552 38.0928h-39.9872l-2.9184 68.3008c-3.328 78.0288-15.2576 112.896-50.8928 148.5824-35.7888 35.7376-64.3584 46.592-122.4192 46.592-44.032 0-54.784-2.304-80.4864-17.408-101.632-59.7504-117.2992-185.6-33.6384-269.312 37.6832-37.6832 77.312-52.9408 137.472-52.9408h36.9664v76.1856h-30.8224c-59.6992 0-102.912 26.2656-116.224 70.5536-19.968 66.8672 33.1776 127.488 103.5776 118.0672 34.4064-4.608 55.0912-19.8656 69.2224-50.9952 10.8032-23.808 12.0832-43.52 12.288-194.7648 0.256-150.0672 1.5872-171.008 12.1344-194.2528 13.312-29.2352 51.968-64.6144 83.968-76.8z" fill="#51A2DA" p-id="27547"></path></svg>