<?xml version="1.0" standalone="no"?><!DOCTYPE svg PUBLIC "-//W3C//DTD SVG 1.1//EN" "http://www.w3.org/Graphics/SVG/1.1/DTD/svg11.dtd"><svg t="1783935535789" class="icon" viewBox="0 0 1024 1024" version="1.1" xmlns="http://www.w3.org/2000/svg" p-id="44106" xmlns:xlink="http://www.w3.org/1999/xlink" width="256" height="256"><path d="M424.079944 0.032A312.677354 312.677354 0 0 0 368.405237 5.289972l1.935989-0.289998C185.006202 38.903795 54.588888 199.325951 43.491947 304.970395c-5.384972 51.842727 22.581881 90.681523 37.9688 107.778432 41.677781 46.290756 124.744343 81.64657 178.099063 110.969416-77.193594 65.808654-112.614407 97.937484-147.485224 134.550292C59.847861 713.077247 23.169054 773.367929 23.040055 816.567702c0 13.899927-2.289988 58.291693 15.838916 93.324509 6.806964 13.161931 26.161862 57.0657 84.485555 89.969526 37.290804 21.064889 90.420524 28.806848 142.357251 21.387887C426.65993 998.281745 642.212795 861.795464 795.956986 734.696133c98.034484-81.033573 169.680107-159.51916 190.357998-198.164957 16.677912-31.193836 18.548902-87.130541 8.870953-122.292356-27.516855-99.711475-251.198678-303.9734-434.039715-386.167968C521.69443 10.322946 475.661672 0 427.176927 0c-1.099994 0-2.193988 0-3.289982 0.032h0.160999z m-0.322999 2.899985c1.099994 0 2.386987-0.032 3.677981-0.032a314.317346 314.317346 0 0 1 140.808259 33.071826l-1.838991-0.838996c147.648223 72.549618 397.13591 276.553544 415.523813 379.104005 22.80688 126.808333-423.74977 470.072526-695.36734 523.622243-105.389445 20.677891-195.228972 26.354861-236.229756-84.936553-35.516813-96.485492 33.387824-167.067121 134.84129-259.778632 42.161778-38.484797 75.710601-67.259646 126.228336-109.937421 2.804985-2.936985-243.455719-87.844538-251.262678-185.298025C52.006902 197.744959 210.624067 12.838932 413.691998 3.289983c3.354982-0.160999 6.677965-0.289998 10.032947-0.354998z m-4.773975 22.193883c-7.806959 0.128999-15.29092 0.612997-22.67788 1.418992l1.099994-0.099999c-99.743475 10.483945-118.840374 23.354877-209.198899 91.711517C157.915345 141.092257 102.172638 196.834964 87.946713 262.933616c-5.451971 25.193867 0.999995 46.936753 19.099899 62.194673 58.059694 48.813743 155.259183 88.427535 235.063763 126.750332 23.354877 11.193941 7.899958 31.516834-29.774843 64.162663C217.270032 598.332851 88.750709 698.496323 79.783756 774.851921c-4.225978 35.968811 8.099957 84.807554 51.742727 109.840422 50.999732 29.193846 156.874174 10.161947 227.584803-16.161915 103.324456-38.484797 239.004742-123.389351 346.748174-206.841911 111.99941-86.807543 216.164862-196.998963 221.326835-214.971868 6.322967-22.064884 5.67797-42.484776-6.548965-65.936653-19.128899-36.774806-44.774764-64.129662-72.29162-94.743502-73.899611-77.83959-151.9992-146.29323-245.520707-198.712954-61.194678-34.322819-115.711391-63.226667-183.842033-62.193672z m45.871759 154.587186c23.322877 0 50.194736 7.354961 79.065584 21.322888 72.033621 34.834817 146.035231 126.324335-0.644997 178.971058-39.87079 14.322925-166.422124-35.194815-162.551144-102.71146 3.83898-66.999647 36.419808-97.646486 84.130557-97.582486z m12.161936 58.323693c-13.548929-0.099999-24.548871 3.354982-29.645844 11.193941-23.741875 36.774806-12.899932 62.839669 9.064952 79.485582 8.160957-19.516897 91.969516 1.80699 91.614518 20.128894a12.599934 12.599934 0 0 0 2.354988-1.386993c72.678617-54.710712-20.129894-109.066426-73.420614-109.421424z" fill="#7568A5" p-id="44107"></path></svg>