<svg xmlns="http://www.w3.org/2000/svg" viewBox="148 7 1025 1025" preserveAspectRatio="xMidYMid meet"><path d="M343.29098432 718.62775664c-50.67996267-50.67391147-100.64889387-100.5429952-150.50284905-150.52705493-32.58948587-32.67117867-32.40491947-67.3392992 0.48410667-100.27068479 60.9309312-61.012624 121.93447787-121.9556576 182.93802558-182.89869228 3.48859733-3.48254507 7.2555552-6.68975467 11.76077656-10.82281919 4.74122453 4.40537493 8.83495467 7.97869013 12.67453012 11.81221333 59.56938027 59.5209696 119.14481067 119.03891307 178.6415744 178.63552426 33.8058048 33.8632928 34.06298667 69.653936 0.65051947 103.14507093-60.89764907 61.04590613-121.91632427 121.97381227-182.91079467 182.92289707-3.16485013 3.16182507-6.5657024 6.08764693-11.9877024 11.09210348-13.8968992-14.35074987-27.44282133-28.34144533-41.74818668-43.08855789z" fill="#82B4FF" /><path d="M904.9369246 740.93601692c-57.05504853-57.05807467-113.3718336-113.3476288-169.65231147-169.66743895-36.13557013-36.15674987-36.18700693-69.99886293-0.55974825-106.08904746 4.91368747-4.97722667 8.58079893-11.18589973 14.8590624-19.5216192 16.97400533 17.67898667 31.2188576 31.71506667 44.27159572 46.77987521 2.5929984 2.99541227 1.67319467 10.17532587 0.59908161 15.03152533-8.51120853 38.51677227 13.14955947 77.4087264 49.78436586 88.65816639 39.0946752 12.00888213 79.23320533-7.41591573 93.56882667-45.28216853 20.02388053-52.88870187-22.2477472-106.35228053-79.65982507-99.55662719-12.54745067 1.48862933-20.5079872-1.3797056-28.54416533-10.43856-10.64127893-11.9877024-22.6017504-22.80144533-32.88297495-33.01913069l133.8677184-133.87679571c1.1194976 0.93795733 4.25409173 3.1951072 6.95298775 5.8909792 63.82952213 63.738752 127.68627627 127.45027413 191.36754134 191.34333439 31.74532373 31.8512224 31.53655253 67.2001184-0.45385069 99.26918932-62.28340587 62.43468907-124.69994027 124.73624853-187.08016745 187.07714028-2.82900053 2.82597547-5.82441387 5.4855392-12.85001814 12.08149867-7.6852-9.39772907-15.2584512-18.6623296-23.58509331-28.68032106z" fill="#8FD460" /><path d="M605.17175129 777.25615345c26.19322027 26.76204587 56.6798656 34.2112448 85.63249599 21.56394559 31.33080747-13.68510293 48.66184107-40.4925344 46.77987519-73.92618133-1.31919147-23.4065792-11.34626027-42.9403008-31.01916374-56.00514133-8.78351787-5.8395424-11.47938987-12.29329493-11.15564265-22.30220907 0.66564693-20.61085973 0.19969387-41.26105387 0.19969386-58.67983359l207.28861334 207.27953705c-1.1134464 1.21934507-4.5929664 5.34938347-8.39623255 9.15567574a180674.6795136 180674.6795136 0 0 1-182.90474346 182.89264001c-32.24758507 32.18404587-67.11539947 32.35348373-99.09975038 0.43267092-64.24101333-64.10788373-128.14617813-128.5546432-192.78052909-192.26313919-10.18742933-10.0391712-9.39772907-15.53983787 0.29954134-25.1070048 61.0065728-60.20779627 121.2930368-121.14175253 182.16950614-181.47965227 8.2479744-8.178384 18.46263467-14.3719296 27.76354241-21.48225387 1.56427093 0.8471872 3.12854187 1.70042667 4.6897877 2.55064001v51.93561599c0 5.54605227-0.45082453 11.134464 0.09077014 16.6290784 1.3222176 13.4491008-2.28740587 21.90887253-15.10414185 30.43218346-36.35341867 24.17509867-42.00536853 72.3740128-14.45362239 108.37342828z" fill="#FFE782" /><path d="M615.65872088 225.39825372l-89.0363744-88.7852448c3.17695253-4.00901227 5.29189547-7.2737088 7.97566506-9.975632 25.93906453-26.0752192 51.75407573-52.2775168 78.03806615-78.00175787 28.47154987-27.866416 64.70394133-28.46247253 92.67322879-0.75641708 65.50574293 64.88245547 130.491072 130.29137707 195.66701652 195.50968215 1.04688213 1.04688213 1.8032992 2.3842272 1.53401493 2.02417279l-134.22777386 134.10977173c-8.99834133-9.1526496-20.74701547-20.55639787-31.66968214-32.70748692-2.05745493-2.2843808-1.59755307-7.67612373-0.95913705-11.40677334 8.75931307-51.4303296-27.5245152-94.28288533-78.36786349-89.26027413-15.890816 1.57032213-25.54572693-2.3902784-34.49263146-13.5489472-1.88196587-2.34489387-4.2389632-4.30552747-7.13452905-7.20109333z" fill="#FF8282" /><path d="M433.2864958 271.56996892c-8.42346347-6.43559893-16.0874848-12.1147808-22.52913491-16.88626135l74.58880319-74.85808746c10.97107733 11.860624 22.5775456 25.00413227 34.83150613 37.51830081 21.50343253 21.951232 43.74210347 43.19748267 64.8279936 65.53902613 3.80931733 4.0362432 5.89400427 12.36288533 4.79871146 17.92709118-6.901552 35.03120107 5.65195093 65.100304 35.98126187 84.42828055 3.68526507 2.35094507 8.2298208 6.9711424 8.35992426 10.68061227 0.78667413 21.96636053 0.39031147 43.96902827 0.39031148 70.83092159-11.6215968-9.13752213-20.76516907-14.992192-28.29908695-22.4686208-57.57546347-57.13976747-114.833232-114.59420373-172.94726504-172.71126292z" fill="#FF8383" /><path d="M704.64971072 402.19114437c8.3690016 7.36145387 15.94527787 13.9362336 24.11458561 21.02235095l-32.23548265 30.0660768v-55.50590508c2.6444352 1.3101152 4.98932907 2.46894613 8.12089704 4.41747733z" fill="#FF8E8E" /></svg>