<?xml version="1.0" standalone="no"?><!DOCTYPE svg PUBLIC "-//W3C//DTD SVG 1.1//EN" "http://www.w3.org/Graphics/SVG/1.1/DTD/svg11.dtd"><svg t="1783935036225" class="icon" viewBox="0 0 1024 1024" version="1.1" xmlns="http://www.w3.org/2000/svg" p-id="15512" xmlns:xlink="http://www.w3.org/1999/xlink" width="256" height="256"><path d="M545.194667 253.568s-84.053333-5.546667-227.285334 39.253333c-145.92 45.653333-228.693333 110.378667-228.693333 110.378667s217.514667-121.472 463.018667-128.341333z m313.642666 132.053333l10.965334-0.725333s-62.634667-75.946667-182.528-112.981333c67.413333 27.392 126.037333 63.701333 171.562666 113.706666z m17.92 31.573334c1.664-2.901333 7.082667 9.258667 11.221334 14.378666 0.170667 1.024 0.426667 1.664-1.92 1.152-0.213333-1.066667-0.554667-1.365333-0.554667-1.365333s-5.76-3.413333-7.552-5.845333c-1.749333-2.432-2.090667-6.698667-1.194667-8.32z m147.114667 361.770666s13.312-152.661333-226.56-187.861333a779.818667 779.818667 0 0 0-107.690667-7.978667c-192.256 2.56-199.253333-221.738667-54.4-233.045333 60.032-4.949333 131.712 27.434667 201.813334 60.074667-0.298667 8.704 0.085333 16.426667 5.802666 23.552 5.717333 7.168 27.648 14.933333 34.688 18.986666 6.997333 4.010667 29.482667 18.346667 43.264 36.266667 2.986667-5.589333 27.904-21.845333 27.904-21.845333s-5.973333 0.128-19.84-5.077334c-13.909333-5.205333-30.421333-20.906667-30.805333-21.802666-0.426667-0.938667-0.64-2.346667 2.56-2.986667 2.517333-2.090667-3.072-8.832-5.546667-11.306667-2.474667-2.474667-18.986667-30.549333-19.370666-31.146666-0.384-0.682667-0.512-1.322667-1.706667-2.133334-3.626667-1.152-19.626667 1.706667-19.626667 1.706667s-24.533333-12.074667-33.024-38.101333c0.128 4.565333-4.224 9.557333 0 20.010666-12.8-5.418667-23.808-14.677333-32.512-37.546666-5.12 13.013333 0 21.290667 0 21.290666s-30.165333-8.448-34.986666-36.266666c-5.290667 12.501333 0 20.010667 0 20.010666s-49.194667-25.685333-130.944-26.026666c-54.741333-5.034667-66.133333-101.290667-61.013334-117.504 0 0-78.933333-41.6-234.368-59.989334-155.392-18.346667-282.794667-2.773333-282.794666-2.773333s275.2-13.226667 495.658666 76.074667c7.509333 33.493333 30.037333 89.344 42.197334 116.181333-34.773333 24.021333-73.941333 46.592-80.042667 126.72-6.101333 80.128 62.805333 150.613333 148.224 152.746667 81.066667 4.352 137.130667 4.949333 205.056 40.192 64.853333 35.84 118.016 145.066667 123.306667 243.328 5.632-72.917333-21.717333-229.674667-149.333334-277.248 178.389333 31.232 194.090667 163.498667 194.090667 163.498666zM541.013333 241.621333l-6.4-20.693333s-105.984-18.816-248.405333-8.704C143.786667 222.336 0 272.213333 0 272.213333s294.229333-74.026667 541.013333-30.592z" fill="#4F7A93" p-id="15513"></path></svg>