<?xml version="1.0" standalone="no"?><!DOCTYPE svg PUBLIC "-//W3C//DTD SVG 1.1//EN" "http://www.w3.org/Graphics/SVG/1.1/DTD/svg11.dtd"><svg t="1783935466207" class="icon" viewBox="0 0 1024 1024" version="1.1" xmlns="http://www.w3.org/2000/svg" p-id="42223" xmlns:xlink="http://www.w3.org/1999/xlink" width="256" height="256"><path d="M86.016 138.016v152h64q32 0 44 22.016 10.016 16 10.016 52v270.016q0 68 36.992 126.016t99.008 92 138.016 34.016h372q36 0 62.016-20.992t26.016-55.008V392.064q0-68-36-126.016t-99.008-92-136.992-34.016L86.08 138.016zM282.016 232h76v384q0 38.016 22.016 64.992t54.016 27.008h254.016q40 0 67.008-23.008t27.008-56.992V424q0-18.016-12.992-32t-32.992-14.016-32.992 14.016-12.992 32v176h-80v-176q0-18.016-12.992-32t-32-14.016-32.992 14.016-14.016 32v176h-78.016v-176q0-52 36-88.992t87.008-36.992 87.008 36q36-36 87.008-36t88 38.016 36.992 88v218.016q-6.016 56-46.016 96-48 48-112 48h-284q-50.016-4-92-46.016-46.016-46.016-46.016-108v-400z" p-id="42224" data-spm-anchor-id="a313x.search_index.0.i32.5afa3a81NBcrWb" class="selected" fill="#30c73a"></path></svg>