<?xml version="1.0" standalone="no"?><!DOCTYPE svg PUBLIC "-//W3C//DTD SVG 1.1//EN" "http://www.w3.org/Graphics/SVG/1.1/DTD/svg11.dtd"><svg t="1783935521449" class="icon" viewBox="0 0 1024 1024" version="1.1" xmlns="http://www.w3.org/2000/svg" p-id="43469" xmlns:xlink="http://www.w3.org/1999/xlink" width="256" height="256"><path d="M313.685333 67.925333l-58.197333 0.085334L226.986667 117.333333l66.432 115.754667-133.845334-0.341333-56.32 99.84h498.773334l-57.728-99.498667-136.192-0.256-94.464-164.906667z m263.466667 0l-114.645333 1.066667 249.429333 432.085333 57.216-99.84-67.84-117.973333 95.573333-164.266667-29.141333-50.432h-57.002667l-66.986666 115.413334-66.56-116.053334z m293.845333 178.986667l-249.429333 432 115.029333-0.341333 68.309334-117.76 189.994666 0.682666 29.098667-50.474666-28.416-49.365334-133.546667-0.341333L929.194667 345.6l-58.24-98.688zM402.432 345.002667l-115.029333 0.341333-68.309334 117.76-189.994666-0.682667L0 512.853333l28.416 49.365334 133.546667 0.341333-67.2 115.626667 58.24 98.773333L402.432 345.002667zM312.746667 522.666667l-0.256 0.426666-0.085334-0.170666-57.258666 99.84 67.84 117.973333-95.573334 164.266667 29.184 50.432H313.6l0.170667-0.256h0.042666l66.858667-115.114667 66.474667 116.053333 114.688-1.109333-0.170667-0.256h0.426667L312.746667 522.666667z m108.8 167.68l57.770666 99.498666 136.192 0.256 94.506667 164.906667 58.154667-0.085333 28.501333-49.322667-66.432-115.754667 133.845333 0.341334 56.32-99.84H421.589333z" fill="#5277C3" p-id="43470" data-spm-anchor-id="a313x.search_index.0.i38.5afa3a81NBcrWb" class=""></path></svg>
