<?xml version="1.0" encoding="UTF-8"?>
<svg xmlns="http://www.w3.org/2000/svg"
     width="32" height="32" viewBox="0 0 32 32"
     role="img" aria-label="Ascend">
  <title>Ascend</title>
  <path
    fill="#C31D20"
    fill-rule="nonzero"
    d="M25.28803 3.19675C25.6202027 2.83984711 26.1331055 2.71523314 26.5920071 2.87993794C27.0509088 3.04464275 27.367507 3.46697365 27.39691 3.95365L27.42562 11.30863C23.63851 12.68932 19.1989 15.71431 14.85064 20.6185L14.84281 20.62894L8.24734 27.99436C7.79229796 28.5044174 7.09970942 28.7329678 6.43046576 28.5939185C5.76122211 28.4548692 5.21699738 27.9693451 5.00279576 27.3202385C4.788594147 26.6711318 4.936957963 25.9570574 5.392 25.447L21.96811 6.78289ZM19.19368 18.72886C21.48787 16.92535 24.16312 15.67777 27.42562 16.01968L27.28468 24.66922C27.3078846 25.2545137 26.9842847 25.798593 26.4589118 26.0576114C25.933539 26.3166298 25.304912 26.2420158 24.85477 25.86721Z"/>
</svg>
